<?xml version="1.0" encoding="UTF-8"?>
<svg width="49px" height="81px" viewBox="0 0 49 81" version="1.1" xmlns="http://www.w3.org/2000/svg" xmlns:xlink="http://www.w3.org/1999/xlink">
    <title>Chain-Color</title>
    <g id="Page-1" stroke="none" stroke-width="1" fill="none" fill-rule="evenodd">
        <g id="Artboard" transform="translate(0.000000, -448.000000)" fill="#FFFFFF" fill-rule="nonzero">
            <g id="utils" transform="translate(0.000000, 444.000000)">
                <g id="Chain-Color" transform="translate(0.000000, 4.000000)">
                    <path d="M0,51.7999776 C0,55.7756036 3.13405645,59 7,59 C10.8659436,59 14,55.7756036 14,51.7999776 C14,48.8850496 9.89089407,46.1428091 9.89089407,41 C9.89089407,36.3714382 14,33.1149504 14,30.2000224 C14,26.2243964 10.8659436,23 7,23 C3.13405645,23 0,26.2243964 0,30.2000224 C0,33.1149504 4.10921502,36.3714382 4.10910593,41 C4.10910593,45.6285618 0,48.8850496 0,51.7999776 Z" id="Path"></path>
                    <path d="M35,7.17721944 C35,3.21407266 38.1339718,0 41.9999455,0 C45.8659191,0 49,3.21407266 49,7.17721944 C49,8.42515431 48.2419253,9.64143502 47.3770503,11.0291851 C46.228211,12.8723974 44.8908621,15.0182816 44.8908621,17.9429927 C44.8908621,20.5153693 46.1682108,22.6627077 47.2985047,24.5628526 C48.1955615,26.070732 49,27.423025 49,28.7087659 C49,28.8810183 48.9941091,29.0519284 48.9824363,29.2212726 C48.9941091,29.3906168 49,29.561527 49,29.7338912 C49,30.9818261 48.2419253,32.1981068 47.3770503,33.5858569 C46.228211,35.4290691 44.8908621,37.5749534 44.8908621,40.4996644 C44.8908621,43.0720411 46.1682108,45.2193794 47.2985047,47.1195244 C48.1955615,48.6274038 49,49.9798086 49,51.2654377 C49,51.4378019 48.9941091,51.608712 48.9824363,51.7780563 C48.9941091,51.9474005 49,52.1183106 49,52.2906748 C49,53.5764158 48.1955615,54.9287087 47.2985047,56.4365881 C46.1682108,58.3367331 44.8908621,60.4840714 44.8908621,63.0564481 C44.8908621,65.9811591 46.228211,68.1270434 47.3770503,69.9702556 C48.2419253,71.3580057 49,72.5742864 49,73.8222213 C49,77.7853681 45.8659191,81 41.9999455,81 C38.1339718,81 35,77.7853681 35,73.8222213 C35,72.5365922 35.8044385,71.1842993 36.7013862,69.6764199 C37.8317892,67.7761631 39.1091379,65.6289366 39.1091379,63.0564481 C39.1091379,60.4840714 37.8317892,58.3367331 36.7013862,56.4365881 C35.8044385,54.9287087 35,53.5764158 35,52.2906748 C35,52.1183106 35.0058909,51.9474005 35.0175637,51.7780563 C35.0058909,51.608712 35,51.4378019 35,51.2654377 C35,49.9796968 35.8044385,48.6274038 36.7013862,47.1195244 C37.8317892,45.2193794 39.1091379,43.0720411 39.1091379,40.4996644 C39.1091379,37.9271759 37.8317892,35.7799495 36.7013862,33.8796926 C35.8044385,32.3718132 35,31.0195203 35,29.7338912 C35,29.561527 35.0058909,29.3906168 35.0175637,29.2212726 C35.0058909,29.0520403 35,28.8810183 35,28.7087659 C35,27.423025 35.8044385,26.070732 36.7013862,24.5628526 C37.8317892,22.6627077 39.1091379,20.5153693 39.1091379,17.9429927 C39.1091379,15.3705042 37.8317892,13.2232777 36.7013862,11.3230208 C35.8044385,9.81514147 35,8.4628485 35,7.17721944 Z" id="Path"></path>
                    <path d="M24.9999455,70 C21.1339718,70 18,66.8102775 18,62.877156 C18,61.601267 18.8044385,60.2592191 19.7013862,58.7626526 C20.8317892,56.8769033 22.1091379,54.7459445 22.1091379,52.1929455 C22.1091379,49.6400574 20.8317892,47.5089876 19.7013862,45.6232383 C18.8044385,44.1266718 18,42.7846239 18,41.5087349 C18,41.3376766 18.0058909,41.1680612 18.0175637,41 C18.0058909,40.8319388 18,40.6623234 18,40.4912651 C18,39.2152651 18.8044385,37.8732172 19.7013862,36.3767617 C20.8317892,34.4910124 22.1091379,32.3599426 22.1091379,29.8070545 C22.1091379,27.2540555 20.8317892,25.1229856 19.7013862,23.2372364 C18.8044385,21.7407809 18,20.398733 18,19.122844 C18,15.1897225 21.1339718,12 24.9999455,12 C28.8659191,12 32,15.1897225 32,19.122844 C32,20.3613244 31.2420344,21.5683904 30.3770503,22.9456268 C29.228211,24.7748746 27.8908621,26.9045014 27.8908621,29.8070545 C27.8908621,32.3599426 29.1682108,34.4910124 30.2985047,36.3767617 C31.1955615,37.8732172 32,39.2152651 32,40.4912651 C32,40.6622124 31.9941091,40.8319388 31.9824363,40.999889 C31.9941091,41.1679502 32,41.3376766 32,41.5087349 C32,42.7846239 31.1955615,44.1267828 30.2985047,45.6232383 C29.1682108,47.5089876 27.8908621,49.6400574 27.8908621,52.1929455 C27.8908621,55.0954986 29.228211,57.2250144 30.3770503,59.0543732 C31.2420344,60.4316096 32,61.6385646 32,62.877156 C32,66.8102775 28.8659191,70 24.9999455,70 Z" id="Path"></path>
                </g>
            </g>
        </g>
    </g>
</svg>